<?xml version="1.0" encoding="utf-8"?>
<!-- Generator: Adobe Illustrator 15.0.2, SVG Export Plug-In . SVG Version: 6.00 Build 0)  -->
<!DOCTYPE svg PUBLIC "-//W3C//DTD SVG 1.1//EN" "http://www.w3.org/Graphics/SVG/1.1/DTD/svg11.dtd">
<svg version="1.1" id="Calque_1" xmlns="http://www.w3.org/2000/svg" xmlns:xlink="http://www.w3.org/1999/xlink" x="0px" y="0px"
	 width="106px" height="47px" viewBox="0 0 106 47" enable-background="new 0 0 106 47" xml:space="preserve">
<path fill="#DFFFEF" d="M53.001,46.5c-0.67,0-1.299-0.259-1.769-0.729l-5.657-5.657c-0.118-0.118-0.225-0.249-0.317-0.39
	L45.109,39.5H11C5.21,39.5,0.5,34.79,0.5,29V11C0.5,5.21,5.21,0.5,11,0.5h84c5.79,0,10.5,4.71,10.5,10.5v18
	c0,5.79-4.71,10.5-10.5,10.5H60.891l-0.147,0.227c-0.093,0.14-0.198,0.271-0.316,0.389l-5.657,5.656
	C54.298,46.241,53.671,46.5,53.001,46.5z"/>
<path fill="#542954" d="M95,1c5.514,0,10,4.486,10,10v18c0,5.514-4.486,10-10,10H61.16h-0.54l-0.296,0.451
	c-0.073,0.111-0.158,0.215-0.252,0.31l-5.658,5.657C54.039,45.793,53.537,46,53.001,46c-0.537,0-1.04-0.207-1.415-0.582
	l-5.657-5.657c-0.094-0.095-0.18-0.198-0.253-0.312L45.378,39H44.84H11C5.486,39,1,34.514,1,29V11C1,5.486,5.486,1,11,1H95 M95,0H11
	C4.95,0,0,4.95,0,11v18c0,6.05,4.95,11,11,11h33.84c0.109,0.165,0.236,0.322,0.381,0.468l5.657,5.657
	C51.462,46.708,52.231,47,53.001,47c0.769,0,1.537-0.292,2.12-0.875l5.658-5.657c0.146-0.146,0.271-0.303,0.381-0.468H95
	c6.05,0,11-4.95,11-11V11C106,4.95,101.05,0,95,0L95,0z"/>
</svg>
