<?xml version="1.0" encoding="utf-8"?>
<!-- Generator: Adobe Illustrator 15.0.2, SVG Export Plug-In . SVG Version: 6.00 Build 0)  -->
<!DOCTYPE svg PUBLIC "-//W3C//DTD SVG 1.1//EN" "http://www.w3.org/Graphics/SVG/1.1/DTD/svg11.dtd">
<svg version="1.1" id="Calque_1" xmlns="http://www.w3.org/2000/svg" xmlns:xlink="http://www.w3.org/1999/xlink" x="0px" y="0px"
	 width="570px" height="32px" viewBox="0 0 570 32" enable-background="new 0 0 570 32" xml:space="preserve">
<linearGradient id="SVGID_1_" gradientUnits="userSpaceOnUse" x1="872.1201" y1="1371.1191" x2="872.1201" y2="1403.1716" gradientTransform="matrix(1 0 0 1 -801.1201 -1371.1191)">
	<stop  offset="0" style="stop-color:#EEEBE8"/>
	<stop  offset="1" style="stop-color:#E8C6B0"/>
</linearGradient>
<path fill="url(#SVGID_1_)" d="M142,27c0,2.75-2.25,5-5,5H5c-2.75,0-5-2.25-5-5V5c0-2.75,2.25-5,5-5h132c2.75,0,5,2.25,5,5V27z"/>
<linearGradient id="SVGID_2_" gradientUnits="userSpaceOnUse" x1="348.96" y1="-248.8809" x2="348.96" y2="-281.2159" gradientTransform="matrix(1 0 0 -1 -277.96 -249.0996)">
	<stop  offset="0" style="stop-color:#2AEDFF"/>
	<stop  offset="1" style="stop-color:#24CFDE"/>
</linearGradient>
<path fill="url(#SVGID_2_)" d="M137,1c2.206,0,4,1.795,4,4v22c0,2.206-1.794,4-4,4H5c-2.206,0-4-1.794-4-4V5c0-2.205,1.794-4,4-4
	H137 M137,0H5C2.25,0,0,2.25,0,5v22c0,2.75,2.25,5,5,5h132c2.75,0,5-2.25,5-5V5C142,2.25,139.75,0,137,0L137,0z"/>
<linearGradient id="SVGID_3_" gradientUnits="userSpaceOnUse" x1="1300.1201" y1="1371.1191" x2="1300.1201" y2="1403.1716" gradientTransform="matrix(1 0 0 1 -801.1201 -1371.1191)">
	<stop  offset="0" style="stop-color:#EEEBE8"/>
	<stop  offset="1" style="stop-color:#E8C6B0"/>
</linearGradient>
<path fill="url(#SVGID_3_)" d="M570,27c0,2.75-2.25,5-5,5H433c-2.75,0-5-2.25-5-5V5c0-2.75,2.25-5,5-5h132c2.75,0,5,2.25,5,5V27z"/>
<linearGradient id="SVGID_4_" gradientUnits="userSpaceOnUse" x1="776.96" y1="-248.8809" x2="776.96" y2="-281.2159" gradientTransform="matrix(1 0 0 -1 -277.96 -249.0996)">
	<stop  offset="0" style="stop-color:#2AEDFF"/>
	<stop  offset="1" style="stop-color:#24CFDE"/>
</linearGradient>
<path fill="url(#SVGID_4_)" d="M565,1c2.206,0,4,1.795,4,4v22c0,2.206-1.794,4-4,4H433c-2.206,0-4-1.794-4-4V5c0-2.205,1.794-4,4-4
	H565 M565,0H433c-2.75,0-5,2.25-5,5v22c0,2.75,2.25,5,5,5h132c2.75,0,5-2.25,5-5V5C570,2.25,567.75,0,565,0L565,0z"/>
<linearGradient id="SVGID_5_" gradientUnits="userSpaceOnUse" x1="1014.6201" y1="1371.1191" x2="1014.6201" y2="1403.1716" gradientTransform="matrix(1 0 0 1 -801.1201 -1371.1191)">
	<stop  offset="0" style="stop-color:#E8C6B0"/>
	<stop  offset="1" style="stop-color:#EEEBE8"/>
</linearGradient>
<path fill="url(#SVGID_5_)" d="M285,27c0,2.75-2.25,5-5,5H147c-2.75,0-5-2.25-5-5V5c0-2.75,2.25-5,5-5h133c2.75,0,5,2.25,5,5V27z"/>
<linearGradient id="SVGID_6_" gradientUnits="userSpaceOnUse" x1="769.4199" y1="563.1992" x2="769.4199" y2="595.3005" gradientTransform="matrix(1 0 0 1 -555.9199 -563.1992)">
	<stop  offset="0" style="stop-color:#2AEDFF"/>
	<stop  offset="1" style="stop-color:#24CFDE"/>
</linearGradient>
<path fill="url(#SVGID_6_)" d="M280,1c2.206,0,4,1.795,4,4v22c0,2.206-1.794,4-4,4H147c-2.206,0-4-1.794-4-4V5c0-2.205,1.794-4,4-4
	H280 M280,0H147c-2.75,0-5,2.25-5,5v22c0,2.75,2.25,5,5,5h133c2.75,0,5-2.25,5-5V5C285,2.25,282.75,0,280,0L280,0z"/>
<linearGradient id="SVGID_7_" gradientUnits="userSpaceOnUse" x1="1157.6201" y1="1371.1191" x2="1157.6201" y2="1403.1716" gradientTransform="matrix(1 0 0 1 -801.1201 -1371.1191)">
	<stop  offset="0" style="stop-color:#E8C6B0"/>
	<stop  offset="1" style="stop-color:#EEEBE8"/>
</linearGradient>
<path fill="url(#SVGID_7_)" d="M428,27c0,2.75-2.25,5-5,5H290c-2.75,0-5-2.25-5-5V5c0-2.75,2.25-5,5-5h133c2.75,0,5,2.25,5,5V27z"/>
<linearGradient id="SVGID_8_" gradientUnits="userSpaceOnUse" x1="912.4199" y1="563.1992" x2="912.4199" y2="595.3005" gradientTransform="matrix(1 0 0 1 -555.9199 -563.1992)">
	<stop  offset="0" style="stop-color:#2AEDFF"/>
	<stop  offset="1" style="stop-color:#24CFDE"/>
</linearGradient>
<path fill="url(#SVGID_8_)" d="M423,1c2.206,0,4,1.795,4,4v22c0,2.206-1.794,4-4,4H290c-2.206,0-4-1.794-4-4V5c0-2.205,1.794-4,4-4
	H423 M423,0H290c-2.75,0-5,2.25-5,5v22c0,2.75,2.25,5,5,5h133c2.75,0,5-2.25,5-5V5C428,2.25,425.75,0,423,0L423,0z"/>
</svg>
