<?xml version="1.0" encoding="utf-8"?>
<!-- Generator: Adobe Illustrator 15.0.2, SVG Export Plug-In . SVG Version: 6.00 Build 0)  -->
<!DOCTYPE svg PUBLIC "-//W3C//DTD SVG 1.1//EN" "http://www.w3.org/Graphics/SVG/1.1/DTD/svg11.dtd">
<svg version="1.1" id="Calque_1" xmlns="http://www.w3.org/2000/svg" xmlns:xlink="http://www.w3.org/1999/xlink" x="0px" y="0px"
	 width="178px" height="47px" viewBox="0 0 178 47" enable-background="new 0 0 178 47" xml:space="preserve">
<linearGradient id="SVGID_1_" gradientUnits="userSpaceOnUse" x1="211.5996" y1="-198.7275" x2="211.5996" y2="-244.7985" gradientTransform="matrix(1 0 0 -1 -122.6001 -197.96)">
	<stop  offset="0" style="stop-color:#EEEBE8"/>
	<stop  offset="1" style="stop-color:#E8C6B0"/>
</linearGradient>
<path fill="url(#SVGID_1_)" d="M89.582,46.492c-1.373,0-2.722-0.356-3.901-1.029c-1.693-0.954-2.972-2.482-3.627-4.328
	c-1.298-0.066-2.421-0.437-3.349-1.104c-1.008,0.732-2.248,1.133-3.536,1.133c-0.156,0-0.314-0.006-0.477-0.016h-2.156l-0.233,0.004
	c-0.498,0-1.456-0.07-2.491-0.526c-1.035,0.456-1.994,0.526-2.493,0.526l-0.25-0.004h-2.59c-1.476,0-2.742-0.375-3.772-1.117
	c-1.008,0.732-2.248,1.133-3.536,1.133c-0.156,0-0.314-0.006-0.477-0.016h-2.157l-0.232,0.004c-0.46,0-1.353-0.063-2.346-0.469
	c-0.779,0.321-1.597,0.484-2.435,0.484c-0.179,0-0.355-0.008-0.551-0.021l-2.644,0.002c-0.089,0.002-0.211,0.006-0.341,0.006
	c-1.07,0-2.052-0.215-2.924-0.641c-0.851,0.422-1.807,0.635-2.849,0.635h-3.629c-2.302,0-4.35-1.194-5.61-3.234
	c-2.542,3.25-4.339,3.25-5.438,3.25c-2.933,0-4.694-1.855-6.094-4.025c-1.401,2.17-3.164,4.025-6.095,4.025
	c-1.486,0-4.578,0-8.88-9.005C2.66,28.37,0.502,22.321,0.502,15.022c0-4.385,0.128-6.972,0.431-8.649
	c0.977-5.438,5.03-5.86,6.249-5.86L7.46,0.518h4.152c1.205,0,2.295,0.27,3.246,0.801c0.926-0.532,1.998-0.801,3.189-0.801h4.426
	c1.189,0,2.269,0.262,3.214,0.779c0.918-0.511,1.977-0.779,3.083-0.779l3.205-0.001c0.137-0.005,0.275-0.009,0.412-0.009
	c2.857,0,5.185,1.678,6.228,4.486c0.44,1.188,0.687,2.665,0.781,4.716c1.513-0.95,2.979-1.464,4.191-1.464
	c2.477,0,4.791,1.729,6.17,3.015c1.66-2.363,4.003-2.632,4.979-2.632l2.104,0.002c1.414,0,2.626,0.378,3.781,1.187
	c1.046-0.782,2.349-1.193,3.794-1.193l0.452,0.007l2.042-0.002c0.602,0,1.75,0.1,2.927,0.738c1.168-0.638,2.304-0.738,2.9-0.738
	l2.103,0.002c1.415,0,2.626,0.379,3.781,1.188c1.046-0.783,2.349-1.194,3.795-1.194l0.452,0.007l2.041-0.002
	c0.885,0,3.039,0.222,4.678,2.19c1.193-0.722,2.457-1.273,3.764-1.638c1.2-0.334,2.43-0.521,3.649-0.554
	c0.146-0.004,0.292-0.006,0.438-0.006c2.721,0,5.395,0.747,7.761,2.164c1.634-1.938,3.747-2.157,4.614-2.157l2.104,0.002
	c1.437,0,2.617,0.369,3.781,1.188c1.046-0.783,2.349-1.194,3.795-1.194l0.452,0.007l2.037-0.002c0.901,0,3.08,0.228,4.724,2.241
	c2.345-1.741,5.062-2.624,8.08-2.624c2.376,0,4.587,0.543,6.423,1.576c0.954-0.791,2.114-1.191,3.456-1.191l9.998-0.001l0.292-0.004
	c1.37,0,2.586,0.316,3.617,0.941c1.759-0.877,3.764-1.321,5.968-1.321c5.708,0,11.819,3.337,11.819,8.305
	c0,1.167-0.557,3.2-1.771,5.051c1.932,2.127,2.911,4.714,2.911,7.701c0,6.078-4.46,12.23-12.983,12.23
	c-2.088,0-4.043-0.389-5.816-1.154c-0.922,0.518-1.973,0.779-3.123,0.779c-0.131,0-0.26-0.004-0.406-0.01l-11.672,0.002
	c-1.291,0-2.509-0.358-3.542-1.041c-1.776,0.933-3.837,1.424-5.979,1.424c-2.631,0-5.139-0.745-7.279-2.157
	c-1.567,1.597-3.506,1.777-4.303,1.777l-0.25-0.005h-2.59c-1.477,0-2.742-0.375-3.772-1.117c-1.007,0.732-2.247,1.133-3.535,1.133
	c-0.155,0-0.313-0.006-0.478-0.016h-2.154l-0.233,0.005c-0.858,0-3.684-0.237-5.313-3.158c-0.87,0.429-1.705,0.755-2.539,0.987
	c-1.125,0.315-2.285,0.5-3.451,0.548l-1.493,2.819c-1.05,1.899-2.776,3.271-4.858,3.851C91.023,46.395,90.305,46.492,89.582,46.492z
	"/>
<path fill="#542954" d="M32.388,1.016c2.638,0,4.791,1.553,5.757,4.157c0.481,1.297,0.723,2.972,0.78,5.462
	c1.696-1.214,3.348-1.882,4.664-1.882c2.211,0,4.487,1.518,6.262,3.299c1.494-2.57,3.793-2.916,4.887-2.916
	c0.055,0,0.108,0.001,0.16,0.002h1.944c1.364,0,2.558,0.359,3.794,1.316c0.927-0.802,2.196-1.323,3.78-1.323
	c0.11,0,0.224,0.002,0.339,0.005l0.104,0.002h1.883c0.054-0.001,0.11-0.002,0.168-0.002c0.678,0,1.809,0.132,2.927,0.815
	c1.112-0.684,2.231-0.815,2.9-0.815c0.055,0,0.107,0.001,0.16,0.002h1.943c1.364,0,2.558,0.359,3.794,1.317
	c0.927-0.802,2.196-1.324,3.781-1.324c0.11,0,0.224,0.002,0.339,0.005l0.103,0.002h1.883c0.055-0.001,0.111-0.002,0.167-0.002
	c1.023,0,3.078,0.296,4.56,2.354c1.219-0.787,2.563-1.413,4.016-1.82c1.158-0.322,2.35-0.503,3.529-0.535
	c0.143-0.004,0.283-0.006,0.424-0.006c2.859,0,5.57,0.849,7.879,2.323c1.479-2.026,3.494-2.316,4.498-2.316
	c0.055,0,0.106,0.001,0.158,0.002h1.944c1.364,0,2.558,0.359,3.794,1.319c0.93-0.804,2.197-1.326,3.782-1.326
	c0.11,0,0.224,0.002,0.339,0.005l0.104,0.002h1.881c0.055-0.001,0.109-0.002,0.168-0.002c1.039,0,3.141,0.303,4.627,2.446
	c2.177-1.742,4.904-2.829,8.176-2.829c2.506,0,4.725,0.62,6.484,1.69c0.799-0.763,1.887-1.306,3.395-1.306l9.998-0.001
	c0.088-0.002,0.188-0.004,0.292-0.004c1.461,0,2.659,0.389,3.59,1.018c1.647-0.875,3.647-1.398,5.995-1.398
	c5.465,0,11.316,3.133,11.316,7.797c0,1.214-0.654,3.332-1.914,5.102c2.404,2.474,3.055,5.31,3.055,7.649
	c0,5.826-4.288,11.724-12.48,11.724c-2.162,0-4.139-0.437-5.85-1.215c-0.836,0.521-1.866,0.84-3.091,0.84
	c-0.125,0-0.248-0.004-0.39-0.008H143.67c-0.061,0-0.117,0.002-0.174,0.002c-1.334,0-2.537-0.412-3.51-1.127
	c-1.717,0.961-3.756,1.508-6.012,1.508c-2.779,0-5.279-0.84-7.356-2.314c-1.479,1.75-3.464,1.936-4.226,1.936
	c-0.076,0-0.15,0-0.232-0.004h-2.607c-1.521,0-2.779-0.418-3.773-1.25c-0.94,0.793-2.17,1.266-3.534,1.266
	c-0.146,0-0.294-0.006-0.447-0.016h-2.185c-0.078,0.002-0.155,0.004-0.233,0.004c-0.928,0-3.666-0.285-5.098-3.33
	c-0.911,0.479-1.868,0.893-2.892,1.18c-1.149,0.322-2.342,0.503-3.522,0.535c-0.033,0.001-0.066,0.002-0.101,0.002l-1.572,2.979
	l-0.022,0.043l-0.024,0.042c-0.987,1.787-2.604,3.071-4.559,3.615c-0.656,0.183-1.33,0.274-2.007,0.274
	c-1.286,0-2.557-0.338-3.654-0.963c-1.699-0.957-2.936-2.512-3.51-4.385c-1.492-0.011-2.734-0.426-3.715-1.246
	c-0.941,0.793-2.171,1.266-3.534,1.266c-0.146,0-0.294-0.006-0.447-0.016h-2.185c-0.078,0.002-0.155,0.004-0.233,0.004
	c-0.484,0-1.463-0.074-2.491-0.578c-1.029,0.504-2.008,0.578-2.493,0.578c-0.075,0-0.15,0-0.232-0.004h-2.608
	c-1.52,0-2.78-0.418-3.773-1.25c-0.941,0.793-2.171,1.266-3.535,1.266c-0.146,0-0.295-0.006-0.448-0.016H54.54
	c-0.077,0.002-0.155,0.004-0.232,0.004c-0.461,0-1.372-0.072-2.346-0.515c-0.741,0.336-1.555,0.53-2.435,0.53
	c-0.168,0-0.335-0.008-0.518-0.02h-2.677c-0.099,0.002-0.217,0.006-0.341,0.006c-1.14,0-2.118-0.264-2.926-0.705
	c-0.785,0.438-1.737,0.699-2.847,0.699h-3.629c-1.949,0-4.255-1-5.545-3.654c-2.627,3.648-4.408,3.67-5.502,3.67
	c-2.789,0-4.496-1.814-6.094-4.471c-1.6,2.655-3.307,4.471-6.095,4.471c-1.383,0-4.263,0-8.427-8.719
	c-1.787-3.742-3.917-9.712-3.917-16.916c0-4.352,0.125-6.911,0.422-8.558C2.34,1.412,6.066,1.021,7.186,1.021
	c0.083,0,0.167,0.002,0.262,0.005h4.168c1.291,0,2.377,0.335,3.25,0.885c0.847-0.55,1.911-0.885,3.186-0.885h4.426
	c1.271,0,2.346,0.323,3.216,0.857c0.875-0.546,1.926-0.857,3.081-0.857h0.103h3.133l-0.013-0.001
	C32.126,1.02,32.258,1.016,32.388,1.016 M32.388,0c-0.143,0-0.288,0.004-0.431,0.01l0,0h-3.083h-0.103
	c-1.096,0-2.151,0.246-3.085,0.714c-0.96-0.474-2.038-0.714-3.212-0.714h-4.426c-1.177,0-2.249,0.247-3.192,0.734
	C13.89,0.257,12.802,0.01,11.612,0.01H7.444c-0.076-0.003-0.17-0.005-0.262-0.005c-2.715,0-5.912,1.649-6.744,6.278
	C0.13,7.991,0,10.605,0,15.022c0,7.395,2.184,13.521,4.017,17.356c4.439,9.294,7.744,9.294,9.332,9.294
	c2.863,0,4.709-1.681,6.095-3.637c1.384,1.956,3.231,3.637,6.094,3.637c1.053,0,2.916,0,5.4-2.915
	c1.365,1.838,3.391,2.898,5.647,2.898h3.629c1.031,0,1.988-0.195,2.85-0.583c0.884,0.391,1.864,0.589,2.923,0.589
	c0.135,0,0.262-0.003,0.37-0.006h2.615c0.194,0.012,0.372,0.021,0.551,0.021c0.836,0,1.654-0.15,2.437-0.449
	c0.995,0.373,1.876,0.434,2.344,0.434c0.086,0,0.172-0.002,0.258-0.004h2.131c0.163,0.009,0.321,0.016,0.477,0.016
	c1.271,0,2.5-0.361,3.538-1.029c1.059,0.674,2.323,1.015,3.771,1.015h2.608c0.059,0.003,0.146,0.004,0.232,0.004
	c0.506,0,1.452-0.068,2.493-0.484c1.04,0.416,1.986,0.484,2.491,0.484c0.086,0,0.173-0.002,0.259-0.004h2.131
	c0.162,0.009,0.32,0.016,0.476,0.016c1.271,0,2.501-0.36,3.538-1.028c0.862,0.547,1.864,0.873,2.991,0.977
	c0.726,1.82,2.034,3.327,3.741,4.288C86.688,46.622,88.123,47,89.582,47c0.768,0,1.531-0.105,2.273-0.313
	c2.211-0.617,4.047-2.071,5.168-4.099l0.004-0.009l0.029-0.051l1.325-2.508c1.106-0.065,2.208-0.25,3.276-0.551
	c0.73-0.205,1.459-0.477,2.21-0.824c1.786,2.779,4.62,3.013,5.51,3.013c0.087,0,0.172-0.002,0.259-0.004h2.131
	c0.164,0.009,0.32,0.016,0.477,0.016c1.271,0,2.501-0.36,3.537-1.028c1.06,0.674,2.324,1.014,3.771,1.014h2.606
	c0.058,0.003,0.146,0.004,0.231,0.004c0.813,0,2.723-0.174,4.363-1.646c2.146,1.328,4.626,2.025,7.219,2.025
	c2.121,0,4.166-0.465,5.955-1.35c1.059,0.636,2.279,0.968,3.566,0.968l0.186-0.002h11.504c0.119,0.005,0.254,0.009,0.39,0.009
	c1.147,0,2.204-0.243,3.147-0.727c1.776,0.73,3.723,1.102,5.791,1.102c8.854,0,13.486-6.408,13.486-12.739
	c0-2.936-0.961-5.597-2.786-7.75c1.127-1.85,1.646-3.829,1.646-5.001c0-5.272-6.369-8.813-12.32-8.813
	c-2.182,0-4.18,0.423-5.948,1.257c-1.056-0.583-2.276-0.877-3.637-0.877c-0.113,0-0.22,0.002-0.313,0.004l-9.977,0.001
	c-1.339,0-2.514,0.368-3.505,1.096c-1.851-0.971-4.037-1.481-6.374-1.481c-2.971,0-5.657,0.825-8.002,2.454
	c-1.733-1.85-3.883-2.07-4.801-2.07l-0.188,0.002h-1.861l-0.084-0.002c-0.117-0.003-0.238-0.005-0.357-0.005
	c-1.426,0-2.725,0.374-3.803,1.089c-1.154-0.736-2.371-1.082-3.773-1.082h-1.943l-0.16-0.002c-0.892,0-2.994,0.212-4.715,2.021
	c-2.354-1.329-4.984-2.028-7.66-2.028c-0.149,0-0.302,0.002-0.451,0.006c-1.262,0.035-2.53,0.226-3.771,0.571
	c-1.221,0.341-2.403,0.838-3.528,1.48c-1.73-1.834-3.872-2.05-4.778-2.05l-0.185,0.002h-1.865L82.773,8.12
	c-0.117-0.003-0.239-0.005-0.357-0.005c-1.424,0-2.724,0.374-3.802,1.088c-1.154-0.735-2.371-1.081-3.774-1.081h-1.943l-0.16-0.002
	c-0.604,0-1.722,0.095-2.901,0.675C68.648,8.215,67.52,8.12,66.91,8.12l-0.187,0.002h-1.864L64.775,8.12
	c-0.117-0.003-0.239-0.005-0.358-0.005c-1.424,0-2.723,0.374-3.801,1.087c-1.155-0.734-2.371-1.08-3.774-1.08h-1.944l-0.16-0.002
	c-0.993,0-3.288,0.256-5.048,2.396c-1.466-1.281-3.696-2.78-6.101-2.78c-1.126,0-2.398,0.382-3.738,1.116
	c-0.123-1.686-0.368-2.969-0.764-4.038C37.967,1.801,35.463,0,32.388,0L32.388,0z"/>
<g>
	<g>
		<path fill="#808090" d="M46.278,35.561c-0.229,0-0.964,0.078-0.964-0.307c0-0.719,1.954-3.284,1.954-6.208
			c0-1.155-1.09-1.593-2.233-1.593c-2.308,0-5.986,0.41-5.986,3.335c0,2.028,1.648,4.208,1.648,4.594
			c0,0.151-0.152,0.179-0.48,0.179h-3.629c-1.293,0-1.648-2.309-1.648-5.644c0-10.979,7.535-16.084,8.651-16.084
			c0.837,0,7.383,3.668,7.383,15.572c0,6.848-1.09,6.155-1.852,6.155H46.278L46.278,35.561z M39.606,24.17
			c0,0.311,0.176,0.49,0.481,0.49c0.457,0,2.917-0.669,5.15-0.669c0.888,0,1.294-0.127,1.294-0.845c0-1.59-1.878-4.927-2.842-4.927
			C42.32,18.219,39.606,22.298,39.606,24.17z"/>
		<path fill="#808090" d="M64.479,35.561c-1.751,0-0.178-1.588-4.136-9.697c-0.33-0.691-2.563-5-3.375-5
			c-0.634,0-0.456,2.795-0.456,3.308c0,7.236,1.04,9.853,1.04,11.159c0,0.334-0.482,0.23-0.71,0.23h-2.36
			c-0.634,0-1.395,0.486-1.395-9.131c0-12.674,1.32-12.212,1.751-12.212h2.003c0.965,0,2.894,2.053,7.638,10.929
			c0.075,0.127,0.202,0.463,0.431,0.463c0.253,0,0.203-1.104,0.203-1.465c0-4.795-1.294-9.057-1.294-9.645
			c0-0.36,0.557-0.282,1.04-0.282h1.928c0.559,0,1.75-0.462,1.75,12.212c0,9.617-0.76,9.131-1.394,9.131H64.479z"/>
		<path fill="#808090" d="M82.477,35.561c-1.75,0-0.178-1.588-4.136-9.697c-0.33-0.691-2.563-5-3.375-5
			c-0.635,0-0.456,2.795-0.456,3.308c0,7.236,1.04,9.853,1.04,11.159c0,0.334-0.483,0.23-0.711,0.23H72.48
			c-0.634,0-1.395,0.486-1.395-9.131c0-12.674,1.319-12.212,1.75-12.212h2.003c0.964,0,2.893,2.053,7.638,10.929
			c0.076,0.127,0.202,0.463,0.431,0.463c0.254,0,0.203-1.104,0.203-1.465c0-4.795-1.294-9.057-1.294-9.645
			c0-0.36,0.558-0.282,1.04-0.282h1.929c0.558,0,1.75-0.462,1.75,12.212c0,9.617-0.761,9.131-1.395,9.131H82.477z"/>
		<path fill="#808090" d="M119.553,35.561c-1.752,0-0.177-1.588-4.136-9.697c-0.33-0.691-2.563-5-3.374-5
			c-0.635,0-0.456,2.795-0.456,3.308c0,7.236,1.039,9.853,1.039,11.159c0,0.334-0.481,0.23-0.711,0.23h-2.358
			c-0.635,0-1.395,0.486-1.395-9.131c0-12.674,1.316-12.212,1.749-12.212h2.004c0.965,0,2.894,2.053,7.638,10.929
			c0.076,0.127,0.203,0.463,0.432,0.463c0.252,0,0.203-1.104,0.203-1.465c0-4.795-1.293-9.057-1.293-9.645
			c0-0.36,0.558-0.282,1.039-0.282h1.926c0.561,0,1.752-0.462,1.752,12.212c0,9.617-0.762,9.131-1.396,9.131H119.553z"/>
		<path fill="#808090" d="M125.525,25.479c0-5.564,3.095-11.646,9.259-11.646c2.207,0,5.606,0.948,5.606,3.72
			c0,1.487-1.013,2.333-2.611,2.333c-1.041,0,0.354-2.412-2.866-2.412c-3.706,0-5.276,3.822-5.276,7.031
			c0,4.9,3.297,6.874,5.504,6.874c4.137,0,4.49-3.745,4.719-3.745c0.354,0,0.558,2.052,0.558,2.31c0,3.797-2.894,6.002-6.44,6.002
			C128.215,35.945,125.525,30.662,125.525,25.479z"/>
		<path fill="#808090" d="M143.598,35.561c-1.347,0.053-0.941-0.846-1.064-6.056c0-3.437,1.396-15.287,2.131-15.287h9.994
			c0.309,0,1.221-0.078,1.221,0.436c0,0.206-1.626,3.798-1.955,3.798c-0.43,0-1.193-1.208-3.677-1.208
			c-1.753,0-3.604,1.053-3.604,3.513c0,0.54,0.1,1.464,0.811,1.464c0.813,0,2.615-1.205,4.742-1.205
			c0.308,0,1.146,0.101,1.146,0.539c0,0.024-1.421,4.206-1.728,4.206c-0.252,0-1.219-0.514-2.207-0.514
			c-1.293,0-3.172,0.948-3.172,3.487c0,2.053,1.065,3.541,3.197,3.541c2.512,0,4.063-1.692,4.67-1.692
			c0.379,0,2.08,4.336,2.08,4.592c0,0.487-0.633,0.386-0.938,0.386H143.598L143.598,35.561z"/>
		<path fill="#808090" d="M164.538,17.296c-1.269,0-2.894,0.641-2.894,2.129c0,1.845,2.514,2.565,3.905,3.053
			c5.33,1.793,6.421,4.387,6.421,6.823c0,2.977-2.107,6.645-7.457,6.645c-3.604,0-7.26-1.949-7.26-6.027
			c0-2.182,1.297-3.464,1.549-3.464c0.43,0,0,5.208,5.454,5.208c1.931,0,3.603-0.848,3.603-2.436c0-1.875-2.279-2.646-3.754-3.104
			c-5.555-1.747-6.166-4.286-6.166-6.466c0-2.154,1.445-5.822,6.599-5.822c3.678,0,6.293,1.973,6.293,2.717
			c0,0.718-1.322,3.054-2.032,3.054C168.166,19.604,167.175,17.296,164.538,17.296z"/>
	</g>
	<path fill="#808090" d="M32.007,6.105c0.886,0,1.908-0.516,1.908,5.75c0,13.254-7.73,23.722-8.376,23.722
		c-1.498,0-4.972-9.093-6.094-9.093c-1.125,0-4.597,9.093-6.095,9.093c-0.647,0-7.321-8.744-7.321-20.555
		c0-9.433,0.647-8.917,1.363-8.917h4.221c0.341,0,0.783,0.034,0.783,0.482c0,0.345-0.987,2.753-0.987,7.3
		c0,8.468,2.043,12.427,2.827,12.427c1.055,0,3.846-4.89,3.846-13.083c0-4.579-0.612-6.229-0.612-6.678
		c0-0.415,0.203-0.448,0.579-0.448h4.426c0.442,0,0.852,0.067,0.852,0.586c0,0.586-0.647,2.615-0.647,6.438
		c0,7.676,1.941,13.184,2.962,13.184c1.293,0,3.677-6.058,3.677-11.844c0-3.65-1.157-7.401-1.157-7.85
		c0-0.549,0.407-0.516,0.713-0.516h3.132V6.105z"/>
	<path fill="#808090" d="M106.84,21.434c-1.175-4.278-5.107-7.352-9.688-7.221c-0.807,0.022-1.592,0.147-2.338,0.354
		c-4.234,1.186-7.269,5.169-7.145,9.802c0.022,0.814,0.146,1.604,0.354,2.359c0.465,1.696,1.382,3.192,2.583,4.389l-3.193,6.038
		c-0.672,1.214-0.242,2.752,0.958,3.428c0.597,0.341,1.271,0.399,1.883,0.229c0.618-0.174,1.171-0.588,1.509-1.197l3.18-6.018
		c0.887,0.239,1.81,0.383,2.771,0.354c0.808-0.021,1.587-0.145,2.332-0.354c4.231-1.187,7.276-5.168,7.146-9.802l-1.492,0.042
		l1.492-0.042C107.165,22.981,107.047,22.19,106.84,21.434z M104.201,23.882c0.098,3.216-2.025,5.978-4.957,6.8
		c-0.516,0.143-1.057,0.233-1.613,0.252c-0.847,0.026-1.656-0.119-2.41-0.382c-0.789-0.278-1.509-0.71-2.139-1.247
		c-1.023-0.875-1.807-2.041-2.178-3.387c-0.143-0.523-0.229-1.068-0.243-1.632c-0.091-3.22,2.024-5.984,4.955-6.805
		c0.516-0.145,1.053-0.23,1.616-0.244c3.181-0.1,5.912,2.046,6.725,5.006C104.1,22.763,104.188,23.311,104.201,23.882z
		 M99.438,24.021c0.029,0.955-0.599,1.772-1.469,2.019c-0.152,0.04-0.313,0.067-0.48,0.071c-0.25,0.01-0.489-0.033-0.713-0.111
		c-0.233-0.082-0.446-0.212-0.633-0.37c-0.305-0.258-0.537-0.606-0.646-1.005c-0.042-0.152-0.069-0.316-0.072-0.482
		c-0.027-0.954,0.6-1.773,1.469-2.019c0.153-0.043,0.313-0.068,0.48-0.073c0.941-0.029,1.752,0.607,1.993,1.485
		C99.408,23.689,99.436,23.852,99.438,24.021z"/>
</g>
</svg>
